<svg width="93" height="192" viewBox="0 0 93 192" fill="none" xmlns="http://www.w3.org/2000/svg">
<rect x="3" y="2" width="86" height="186" rx="8" fill="#F8F8F8"/>
<mask id="mask0_209_1787" style="mask-type:alpha" maskUnits="userSpaceOnUse" x="5" y="2" width="86" height="186">
<rect x="5" y="2" width="86" height="186" rx="8" fill="#FFFAF9"/>
</mask>
<g mask="url(#mask0_209_1787)">
<path d="M15.5967 108.264C18.348 103.946 24.652 103.946 27.4033 108.264L79.1613 189.488C82.1306 194.148 78.7835 200.25 73.2579 200.25H-30.2579C-35.7835 200.25 -39.1306 194.148 -36.1613 189.488L15.5967 108.264Z" fill="#FFF5F3"/>
<path d="M65.5967 124.264C68.348 119.946 74.652 119.946 77.4033 124.264L129.161 205.488C132.131 210.148 128.783 216.25 123.258 216.25H19.7421C14.2165 216.25 10.8694 210.148 13.8387 205.488L65.5967 124.264Z" fill="#FFF0EE"/>
<circle cx="86" cy="42" r="24" fill="#FFEAE7"/>
</g>
<path fill-rule="evenodd" clip-rule="evenodd" d="M14.073 0C6.54359 0 0.439782 6.23341 0.439782 13.9227V39.298C0.196897 39.298 0 39.4991 0 39.7471V46.2594C0 46.5074 0.196897 46.7085 0.439782 46.7085V52.7716C0.196897 52.7716 0 52.9727 0 53.2207V66.9189C0 67.1669 0.196897 67.368 0.439782 67.368V71.1855C0.196897 71.1855 0 71.3866 0 71.6347V85.3328C0 85.5809 0.196897 85.7819 0.439782 85.7819V177.402C0.439782 185.092 6.54359 191.325 14.073 191.325H78.0612C85.5907 191.325 91.6945 185.092 91.6945 177.402V80.3925H92.1342C92.3771 80.3925 92.574 80.1914 92.574 79.9434V58.1611C92.574 57.913 92.3771 57.7119 92.1342 57.7119H91.6945V13.9227C91.6945 6.23342 85.5907 0 78.0612 0H14.073ZM4.5957 13.4315C4.5957 8.22264 8.73054 4 13.8311 4H27.7027C28.5638 4 28.7837 4.56063 28.7837 5.42757C28.7837 8.17377 29.4434 10.8491 33.4328 10.8491H58.2177C62.2071 10.8491 62.8668 8.17377 62.8668 5.42757C62.8668 4.56063 63.0867 4 63.9478 4H77.8193C82.9199 4 87.0548 8.22264 87.0548 13.4315V176.911C87.0548 182.12 82.9199 186.343 77.8193 186.343H13.8311C8.73054 186.343 4.5957 182.12 4.5957 176.911V13.4315Z" fill="#EFEFEF"/>
<g style="mix-blend-mode:lighten" opacity="0.1">
<path d="M34.8201 8.00932C34.8201 9.12551 33.9341 10.0304 32.8411 10.0304C31.7481 10.0304 30.8621 9.12551 30.8621 8.00932C30.8621 6.89313 31.7481 5.98828 32.8411 5.98828C33.9341 5.98828 34.8201 6.89313 34.8201 8.00932Z" fill="white"/>
</g>
<path opacity="0.5" d="M34.0178 8.03076C34.0178 8.66274 33.5082 9.17505 32.8797 9.17505C32.2512 9.17505 31.7417 8.66274 31.7417 8.03076C31.7417 7.39879 32.2512 6.88647 32.8797 6.88647C33.5082 6.88647 34.0178 7.39879 34.0178 8.03076Z" fill="#464646"/>
<g style="mix-blend-mode:soft-light">
<path fill-rule="evenodd" clip-rule="evenodd" d="M32.8797 9.02209C33.4242 9.02209 33.8656 8.57826 33.8656 8.03076C33.8656 7.48327 33.4242 7.03944 32.8797 7.03944C32.3352 7.03944 31.8938 7.48327 31.8938 8.03076C31.8938 8.57826 32.3352 9.02209 32.8797 9.02209ZM32.8797 9.17505C33.5082 9.17505 34.0178 8.66274 34.0178 8.03076C34.0178 7.39879 33.5082 6.88647 32.8797 6.88647C32.2512 6.88647 31.7417 7.39879 31.7417 8.03076C31.7417 8.66274 32.2512 9.17505 32.8797 9.17505Z" fill="#2A2A2A"/>
</g>
<path opacity="0.5" d="M38 4H53.6122V4.44912C53.6122 4.9452 53.2185 5.34736 52.7327 5.34736H38.8796C38.3938 5.34736 38 4.9452 38 4.44912V4Z" fill="#464646"/>
<g style="mix-blend-mode:soft-light" opacity="0.8">
<path fill-rule="evenodd" clip-rule="evenodd" d="M53.3924 4.22456H38.2199V4.44912C38.2199 4.82118 38.5152 5.1228 38.8796 5.1228H52.7327C53.097 5.1228 53.3924 4.82118 53.3924 4.44912V4.22456ZM38 4V4.44912C38 4.9452 38.3938 5.34736 38.8796 5.34736H52.7327C53.2185 5.34736 53.6122 4.9452 53.6122 4.44912V4H38Z" fill="#464646"/>
</g>
</svg>
